<svg xmlns="http://www.w3.org/2000/svg" viewBox="0 0 1224.49 171.71"><defs><style>.a,.b{fill:#f9f9f9;}.b{stroke:red;stroke-miterlimit:10;}</style></defs><path class="a" d="M668.45,379.4c-4.16,12.32-15.24,19.33-28.19,20.4l-92.7,12.83c-4.21,0-5.92,8.47-2.47,10.87,21.49,14.91,98.14,34,92,58.19-1.89,7.49-3.51,12.17-4.42,15.28a53.76,53.76,0,0,1-51.63,38.43H380.75l23.11-67.88a22,22,0,0,1,25.49-14.47l155.11,44.11A4.25,4.25,0,0,0,587,489.5c-13.35-9.92-80.25-55.58-81.45-69.3,0,0-4.28-14.85,3.27-32.46,9.82-23,27.75-23.81,49.05-23.81H673.4" transform="translate(-380.75 -363.93)"/><path class="b" d="M781.06,363.93" transform="translate(-380.75 -363.93)"/><path class="a" d="M964,363.93h-56.4l-26.1,34.37,9.6-34.37H777.35l-14.1,54.38c-7.8,25.78-27.62,41.69-53.94,41.69H653.45c-14.5,36.09,12.07,75.4,51,75.4h90.11a59.53,59.53,0,0,0,56.81-41.73l24.72-78.87,8.27,84a40.55,40.55,0,0,0,40.35,36.57H964L902.53,434.23a22.75,22.75,0,0,1,6.1-30.23Z" transform="translate(-380.75 -363.93)"/><path class="a" d="M1031.88,435.37s-14.21,38.26-23.26,54.93a6.12,6.12,0,0,0,2.78,8.51c7.15,3.07,17.1,10.74,26.48,21.84,2,2.4,3.71,4.6,5.06,6.53,2.34,3.36,3.51,8.22,10.26,8.22h17.7s-6.46-20.16-45.13-35.71c-3.89-1.57-4.39-14.9-2.15-18.61,5.21-8.6,13.33-22.42,15.45-28.44C1039.07,452.64,1037.88,437.27,1031.88,435.37Z" transform="translate(-380.75 -363.93)"/><path class="a" d="M983.15,519.6s44.57-5.9,79.49-43.17c0,0,5.3,17.62,5.75,27.26a10.34,10.34,0,0,1-6.34,10.11C1045.85,520.25,996.82,527.24,983.15,519.6Z" transform="translate(-380.75 -363.93)"/><path class="a" d="M997.4,480.67h0a10.85,10.85,0,0,0,8.34,4.37c11.69.33,40.71.95,59.66-.29,10.58-.69,19.8-7.81,23.65-18.22,1.23-3.35,3.8-8.53,4.65-12.88C1093.7,453.65,1009,480.25,997.4,480.67Z" transform="translate(-380.75 -363.93)"/><path class="a" d="M1040.2,453.64s31.46-10.39,50.26-19.23c7.6-3.57,7.62-12.75.06-16.39a52.25,52.25,0,0,0-7.82-3C1084,416,1061.89,446.09,1040.2,453.64Z" transform="translate(-380.75 -363.93)"/><path class="a" d="M1052.26,414V432.7c0,1.9,2.16,3.19,4.15,2.48h0c4.92-1.78,6.73-7.13,3.73-11Z" transform="translate(-380.75 -363.93)"/><path class="a" d="M1045,417.3l-5,15.56a1,1,0,0,0,1,1.21l.91,0c4,.16,6.9-3,5.94-6.48Z" transform="translate(-380.75 -363.93)"/><path class="a" d="M948.74,447l2.9.88a53.33,53.33,0,0,0,27.17,1c10-2.25,23.44-5.29,33.75-7.58a36.28,36.28,0,0,0,22-14.31l3.3-4.72s0-.38-9.85,1.24a48.2,48.2,0,0,0-12.11,3.67C1006.36,431.44,983.66,440.51,948.74,447Z" transform="translate(-380.75 -363.93)"/><path class="a" d="M965.92,524a61.62,61.62,0,0,1-6.45-11.67,17.29,17.29,0,0,1,3-18.54c11.47-12.6,29.87-41.21,20.64-88.89a33,33,0,0,0,12.73,6.77c10.33,2.43,14.77,5.94,13.5,9.13-9.7,24.37-25.52,81.25-30.73,98.36a8.4,8.4,0,0,0,5.29,10.53c1.06.33,22.35,5.71,23.58,5.94H977.3C972,535.29,969.75,529.37,965.92,524Z" transform="translate(-380.75 -363.93)"/><path class="a" d="M943,476.86s37.23-16.92,45.77-30.15l-3,13.09S964,482.92,943,476.86Z" transform="translate(-380.75 -363.93)"/><path class="a" d="M996.32,458.72s4.32,12.76,3.32,16.34c0,0,2.47-3.52,5.59-7.1a11,11,0,0,0,.54-13.6c-2.48-3.41-4.56-7.7-3.93-12l-7.19,9.55Z" transform="translate(-380.75 -363.93)"/><path class="a" d="M1210.24,448.86a1.28,1.28,0,0,1,2.51.4l-1.4,84.92" transform="translate(-380.75 -363.93)"/><path class="a" d="M1263.6,434.11l55.34-70.18H973.8A29.7,29.7,0,0,0,1002,401.35l69,1.19a36.75,36.75,0,0,1,34.17,48.57l-28.67,84.29h70.91a40.9,40.9,0,0,0,39.15-29.08l17-56.24a1.28,1.28,0,0,1,2.51.39l-1.4,84.93h64.61l18.86-55.65C1235.85,465.59,1242.82,461,1263.6,434.11Z" transform="translate(-380.75 -363.93)"/><path class="a" d="M1438.43,413.75c-3.5,9.36-10.94,12.81-20.57,12.81h-42.4c-35.79,0-67.6,23.78-79.08,59.14l-13.83,49.7h113.24c12.16,0,43.35-6.09,62.73-34.58,16.47-24.23,35.62-94.23,46.33-136.89h-82.13l-62.65.11-11.69-.05a18.2,18.2,0,0,0-17.6,13.26h0L1310.9,444.2h0a93.39,93.39,0,0,1,104-37.42Z" transform="translate(-380.75 -363.93)"/><path class="a" d="M725.9,364.4H694.07l-12.38-.47-1.88,6.68-2.63,8.66a6.5,6.5,0,0,0,7.23,8.31l45.35-7.09a5.15,5.15,0,0,1,4.62,7.06,11.75,11.75,0,0,1-10.92,7.78H702.21c-18,0-33.89,11.92-39.65,29.65l-6.94,24.91H712.4a40.38,40.38,0,0,0,31.45-17.33c8.26-12.15,17.86-47.25,23.23-68.63C767.08,363.93,758.64,364.4,725.9,364.4Z" transform="translate(-380.75 -363.93)"/><path class="a" d="M1504.84,363.94l-17.91,62.52,69.71,19.83a22.05,22.05,0,0,0,25.49-14.47l23.11-67.88Z" transform="translate(-380.75 -363.93)" fill="#d4869c"/></svg>